<mxfile host="app.diagrams.net" modified="2024-07-03T22:25:18.610Z" agent="Mozilla/5.0 (Windows NT 10.0; Win64; x64) AppleWebKit/537.36 (KHTML, like Gecko) Chrome/126.0.0.0 Safari/537.36" etag="mOS612u0eJ8Koyg-p1MN" version="24.6.4" type="device">
  <diagram name="Σελίδα-1" id="krV1axE8DyvHD5mY5Cjw">
    <mxGraphModel dx="1132" dy="1131" grid="1" gridSize="10" guides="1" tooltips="1" connect="1" arrows="1" fold="1" page="1" pageScale="1" pageWidth="827" pageHeight="1169" math="0" shadow="0">
      <root>
        <mxCell id="0" />
        <mxCell id="1" parent="0" />
        <mxCell id="RJot37d2zvxK__3bYGWH-37" value="" style="group" vertex="1" connectable="0" parent="1">
          <mxGeometry x="150" y="110" width="500" height="830" as="geometry" />
        </mxCell>
        <mxCell id="RJot37d2zvxK__3bYGWH-22" value="" style="rounded=0;whiteSpace=wrap;html=1;fillColor=none;strokeColor=#ff0000;strokeWidth=2;" vertex="1" parent="RJot37d2zvxK__3bYGWH-37">
          <mxGeometry y="570" width="320" height="180" as="geometry" />
        </mxCell>
        <mxCell id="RJot37d2zvxK__3bYGWH-31" value="&lt;b&gt;&lt;font style=&quot;font-size: 22px;&quot;&gt;LSTM Model Architecture&lt;/font&gt;&lt;/b&gt;" style="text;html=1;align=center;verticalAlign=middle;whiteSpace=wrap;rounded=0;" vertex="1" parent="RJot37d2zvxK__3bYGWH-37">
          <mxGeometry x="110" width="280" height="50" as="geometry" />
        </mxCell>
        <mxCell id="RJot37d2zvxK__3bYGWH-24" value="" style="rounded=0;whiteSpace=wrap;html=1;fillColor=none;strokeColor=#ff0000;strokeWidth=2;" vertex="1" parent="RJot37d2zvxK__3bYGWH-37">
          <mxGeometry y="250" width="320" height="310" as="geometry" />
        </mxCell>
        <mxCell id="RJot37d2zvxK__3bYGWH-26" value="" style="rounded=0;whiteSpace=wrap;html=1;fillColor=none;strokeColor=#ff0000;strokeWidth=2;" vertex="1" parent="RJot37d2zvxK__3bYGWH-37">
          <mxGeometry y="140" width="320" height="100" as="geometry" />
        </mxCell>
        <mxCell id="RJot37d2zvxK__3bYGWH-7" value="" style="edgeStyle=orthogonalEdgeStyle;rounded=0;orthogonalLoop=1;jettySize=auto;html=1;" edge="1" parent="RJot37d2zvxK__3bYGWH-37" source="RJot37d2zvxK__3bYGWH-1" target="RJot37d2zvxK__3bYGWH-3">
          <mxGeometry relative="1" as="geometry" />
        </mxCell>
        <mxCell id="RJot37d2zvxK__3bYGWH-1" value="&lt;font style=&quot;font-size: 19px;&quot;&gt;Embeddings&lt;/font&gt;" style="rounded=1;whiteSpace=wrap;html=1;fillColor=#fad9d5;strokeColor=#ae4132;" vertex="1" parent="RJot37d2zvxK__3bYGWH-37">
          <mxGeometry x="30" y="170" width="190" height="60" as="geometry" />
        </mxCell>
        <mxCell id="RJot37d2zvxK__3bYGWH-6" style="edgeStyle=orthogonalEdgeStyle;rounded=0;orthogonalLoop=1;jettySize=auto;html=1;exitX=0.5;exitY=1;exitDx=0;exitDy=0;entryX=0.5;entryY=0;entryDx=0;entryDy=0;" edge="1" parent="RJot37d2zvxK__3bYGWH-37" source="RJot37d2zvxK__3bYGWH-2" target="RJot37d2zvxK__3bYGWH-1">
          <mxGeometry relative="1" as="geometry" />
        </mxCell>
        <mxCell id="RJot37d2zvxK__3bYGWH-2" value="&lt;font style=&quot;font-size: 18px;&quot;&gt;Input Layer&lt;/font&gt;" style="rounded=1;whiteSpace=wrap;html=1;fillColor=#b0e3e6;strokeColor=#0e8088;" vertex="1" parent="RJot37d2zvxK__3bYGWH-37">
          <mxGeometry x="30" y="70" width="190" height="60" as="geometry" />
        </mxCell>
        <mxCell id="RJot37d2zvxK__3bYGWH-8" value="" style="edgeStyle=orthogonalEdgeStyle;rounded=0;orthogonalLoop=1;jettySize=auto;html=1;" edge="1" parent="RJot37d2zvxK__3bYGWH-37" source="RJot37d2zvxK__3bYGWH-3" target="RJot37d2zvxK__3bYGWH-4">
          <mxGeometry relative="1" as="geometry" />
        </mxCell>
        <mxCell id="RJot37d2zvxK__3bYGWH-3" value="&lt;font style=&quot;font-size: 18px;&quot;&gt;x20&amp;nbsp;LSTM cells&lt;/font&gt;" style="rounded=1;whiteSpace=wrap;html=1;fillColor=#fad7ac;strokeColor=#b46504;" vertex="1" parent="RJot37d2zvxK__3bYGWH-37">
          <mxGeometry x="30" y="275" width="190" height="60" as="geometry" />
        </mxCell>
        <mxCell id="RJot37d2zvxK__3bYGWH-9" value="" style="edgeStyle=orthogonalEdgeStyle;rounded=0;orthogonalLoop=1;jettySize=auto;html=1;" edge="1" parent="RJot37d2zvxK__3bYGWH-37" source="RJot37d2zvxK__3bYGWH-4" target="RJot37d2zvxK__3bYGWH-5">
          <mxGeometry relative="1" as="geometry" />
        </mxCell>
        <mxCell id="RJot37d2zvxK__3bYGWH-4" value="&lt;span style=&quot;font-size: 18px;&quot;&gt;x20&amp;nbsp;LSTM cells&lt;/span&gt;" style="rounded=1;whiteSpace=wrap;html=1;fillColor=#fad7ac;strokeColor=#b46504;" vertex="1" parent="RJot37d2zvxK__3bYGWH-37">
          <mxGeometry x="30" y="380" width="190" height="60" as="geometry" />
        </mxCell>
        <mxCell id="RJot37d2zvxK__3bYGWH-17" value="" style="edgeStyle=orthogonalEdgeStyle;rounded=0;orthogonalLoop=1;jettySize=auto;html=1;" edge="1" parent="RJot37d2zvxK__3bYGWH-37" source="RJot37d2zvxK__3bYGWH-5" target="RJot37d2zvxK__3bYGWH-16">
          <mxGeometry relative="1" as="geometry" />
        </mxCell>
        <mxCell id="RJot37d2zvxK__3bYGWH-5" value="&lt;span style=&quot;font-size: 18px;&quot;&gt;x20&amp;nbsp;LSTM cells&lt;/span&gt;" style="rounded=1;whiteSpace=wrap;html=1;fillColor=#fad7ac;strokeColor=#b46504;" vertex="1" parent="RJot37d2zvxK__3bYGWH-37">
          <mxGeometry x="30" y="490" width="190" height="60" as="geometry" />
        </mxCell>
        <mxCell id="RJot37d2zvxK__3bYGWH-10" value="&lt;font style=&quot;font-size: 15px;&quot;&gt;(1021)&lt;/font&gt;" style="text;html=1;align=center;verticalAlign=middle;resizable=0;points=[];autosize=1;strokeColor=none;fillColor=none;strokeWidth=4;" vertex="1" parent="RJot37d2zvxK__3bYGWH-37">
          <mxGeometry x="220" y="85" width="70" height="30" as="geometry" />
        </mxCell>
        <mxCell id="RJot37d2zvxK__3bYGWH-12" value="&lt;font style=&quot;font-size: 15px;&quot;&gt;(1021, 500)&lt;/font&gt;" style="text;html=1;align=center;verticalAlign=middle;resizable=0;points=[];autosize=1;strokeColor=none;fillColor=none;strokeWidth=4;" vertex="1" parent="RJot37d2zvxK__3bYGWH-37">
          <mxGeometry x="220" y="185" width="100" height="30" as="geometry" />
        </mxCell>
        <mxCell id="RJot37d2zvxK__3bYGWH-13" value="&lt;font style=&quot;font-size: 15px;&quot;&gt;&lt;font style=&quot;font-size: 15px;&quot;&gt;(&lt;span style=&quot;background-color: rgb(255, 255, 255); color: rgba(0, 0, 0, 0.87); font-family: var(--jp-code-font-family); text-align: left; text-wrap: wrap;&quot;&gt;1021,&amp;nbsp;&lt;/span&gt;&lt;/font&gt;&lt;span style=&quot;font-family: var(--jp-code-font-family); text-wrap: wrap; background-color: rgb(255, 255, 255); color: rgba(0, 0, 0, 0.87); text-align: left;&quot;&gt;20&lt;/span&gt;&lt;span style=&quot;background-color: initial;&quot;&gt;)&lt;/span&gt;&lt;/font&gt;" style="text;html=1;align=center;verticalAlign=middle;resizable=0;points=[];autosize=1;strokeColor=none;fillColor=none;strokeWidth=4;" vertex="1" parent="RJot37d2zvxK__3bYGWH-37">
          <mxGeometry x="220" y="290" width="90" height="30" as="geometry" />
        </mxCell>
        <mxCell id="RJot37d2zvxK__3bYGWH-14" value="&lt;font style=&quot;font-size: 15px;&quot;&gt;(1021, 20)&lt;/font&gt;" style="text;html=1;align=center;verticalAlign=middle;resizable=0;points=[];autosize=1;strokeColor=none;fillColor=none;strokeWidth=4;" vertex="1" parent="RJot37d2zvxK__3bYGWH-37">
          <mxGeometry x="220" y="395" width="90" height="30" as="geometry" />
        </mxCell>
        <mxCell id="RJot37d2zvxK__3bYGWH-15" value="&lt;font style=&quot;font-size: 15px;&quot;&gt;(20)&lt;/font&gt;" style="text;html=1;align=center;verticalAlign=middle;resizable=0;points=[];autosize=1;strokeColor=none;fillColor=none;strokeWidth=4;" vertex="1" parent="RJot37d2zvxK__3bYGWH-37">
          <mxGeometry x="220" y="505" width="50" height="30" as="geometry" />
        </mxCell>
        <mxCell id="RJot37d2zvxK__3bYGWH-19" value="" style="edgeStyle=orthogonalEdgeStyle;rounded=0;orthogonalLoop=1;jettySize=auto;html=1;" edge="1" parent="RJot37d2zvxK__3bYGWH-37" source="RJot37d2zvxK__3bYGWH-16" target="RJot37d2zvxK__3bYGWH-18">
          <mxGeometry relative="1" as="geometry" />
        </mxCell>
        <mxCell id="RJot37d2zvxK__3bYGWH-16" value="&lt;span style=&quot;font-size: 18px;&quot;&gt;Dense layer&lt;/span&gt;" style="rounded=1;whiteSpace=wrap;html=1;fillColor=#bed3b8;strokeColor=#b46504;" vertex="1" parent="RJot37d2zvxK__3bYGWH-37">
          <mxGeometry x="30" y="590" width="190" height="60" as="geometry" />
        </mxCell>
        <mxCell id="RJot37d2zvxK__3bYGWH-29" value="" style="edgeStyle=orthogonalEdgeStyle;rounded=0;orthogonalLoop=1;jettySize=auto;html=1;" edge="1" parent="RJot37d2zvxK__3bYGWH-37" source="RJot37d2zvxK__3bYGWH-18" target="RJot37d2zvxK__3bYGWH-28">
          <mxGeometry relative="1" as="geometry" />
        </mxCell>
        <mxCell id="RJot37d2zvxK__3bYGWH-18" value="&lt;span style=&quot;font-size: 18px;&quot;&gt;Dense layer&lt;/span&gt;" style="rounded=1;whiteSpace=wrap;html=1;fillColor=#BED3B8;strokeColor=#23445d;" vertex="1" parent="RJot37d2zvxK__3bYGWH-37">
          <mxGeometry x="30" y="680" width="190" height="60" as="geometry" />
        </mxCell>
        <mxCell id="RJot37d2zvxK__3bYGWH-20" value="&lt;font style=&quot;font-size: 15px;&quot;&gt;(50)&lt;/font&gt;" style="text;html=1;align=center;verticalAlign=middle;resizable=0;points=[];autosize=1;strokeColor=none;fillColor=none;strokeWidth=4;" vertex="1" parent="RJot37d2zvxK__3bYGWH-37">
          <mxGeometry x="220" y="605" width="50" height="30" as="geometry" />
        </mxCell>
        <mxCell id="RJot37d2zvxK__3bYGWH-23" value="&lt;font style=&quot;font-size: 18px;&quot;&gt;&lt;b&gt;Feed Forward&lt;/b&gt;&lt;/font&gt;" style="text;html=1;align=center;verticalAlign=middle;whiteSpace=wrap;rounded=0;" vertex="1" parent="RJot37d2zvxK__3bYGWH-37">
          <mxGeometry x="320" y="660" width="150" height="30" as="geometry" />
        </mxCell>
        <mxCell id="RJot37d2zvxK__3bYGWH-25" value="&lt;font style=&quot;font-size: 18px;&quot;&gt;&lt;b&gt;LSTM Layers&lt;/b&gt;&lt;/font&gt;" style="text;html=1;align=center;verticalAlign=middle;whiteSpace=wrap;rounded=0;" vertex="1" parent="RJot37d2zvxK__3bYGWH-37">
          <mxGeometry x="320" y="395" width="150" height="30" as="geometry" />
        </mxCell>
        <mxCell id="RJot37d2zvxK__3bYGWH-27" value="&lt;font style=&quot;font-size: 18px;&quot;&gt;&lt;b&gt;Embeddings Layer&lt;/b&gt;&lt;/font&gt;" style="text;html=1;align=center;verticalAlign=middle;whiteSpace=wrap;rounded=0;" vertex="1" parent="RJot37d2zvxK__3bYGWH-37">
          <mxGeometry x="320" y="175" width="180" height="30" as="geometry" />
        </mxCell>
        <mxCell id="RJot37d2zvxK__3bYGWH-28" value="&lt;font style=&quot;font-size: 18px;&quot;&gt;Output&lt;/font&gt;" style="rounded=1;whiteSpace=wrap;html=1;fillColor=#b1ddf0;strokeColor=#10739e;" vertex="1" parent="RJot37d2zvxK__3bYGWH-37">
          <mxGeometry x="30" y="770" width="190" height="60" as="geometry" />
        </mxCell>
        <mxCell id="RJot37d2zvxK__3bYGWH-33" value="&lt;font style=&quot;font-size: 13px;&quot;&gt;&lt;b&gt;Dropout = 0.1&lt;/b&gt;&lt;/font&gt;" style="text;html=1;align=center;verticalAlign=middle;whiteSpace=wrap;rounded=0;" vertex="1" parent="RJot37d2zvxK__3bYGWH-37">
          <mxGeometry x="130" y="340" width="90" height="30" as="geometry" />
        </mxCell>
        <mxCell id="RJot37d2zvxK__3bYGWH-34" value="&lt;font style=&quot;font-size: 13px;&quot;&gt;&lt;b&gt;Dropout = 0.1&lt;/b&gt;&lt;/font&gt;" style="text;html=1;align=center;verticalAlign=middle;whiteSpace=wrap;rounded=0;" vertex="1" parent="RJot37d2zvxK__3bYGWH-37">
          <mxGeometry x="130" y="444.5" width="90" height="30" as="geometry" />
        </mxCell>
        <mxCell id="RJot37d2zvxK__3bYGWH-36" value="&lt;font style=&quot;font-size: 15px;&quot;&gt;(20)&lt;/font&gt;" style="text;html=1;align=center;verticalAlign=middle;resizable=0;points=[];autosize=1;strokeColor=none;fillColor=none;strokeWidth=4;" vertex="1" parent="RJot37d2zvxK__3bYGWH-37">
          <mxGeometry x="220" y="695" width="50" height="30" as="geometry" />
        </mxCell>
      </root>
    </mxGraphModel>
  </diagram>
</mxfile>
